HIERARCHY
ROOT RootJoint
{
    OFFSET   0.000000   0.000000   0.000000
    CHANNELS 6 Xposition Yposition Zposition Xrotation Yrotation Zrotation
    JOINT pelvis_lowerback
    {
        OFFSET   0.000000   0.093605   0.000000
        CHANNELS 3 Xrotation Yrotation Zrotation
        JOINT lowerback_torso
        {
            OFFSET   0.000000   0.100000   0.000000
            CHANNELS 3 Xrotation Yrotation Zrotation
            JOINT torso_head
            {
                OFFSET   0.000000   0.282350   0.000000
                CHANNELS 3 Xrotation Yrotation Zrotation
                End Site
                {
                    OFFSET   0.000000   0.192650   0.000000
                }
            }
            JOINT rTorso_Clavicle
            {
                OFFSET  -0.001000   0.157500   0.000000
                CHANNELS 3 Xrotation Yrotation Zrotation
                JOINT rShoulder
                {
                    OFFSET  -0.117647   0.000000   0.000000
                    CHANNELS 3 Xrotation Yrotation Zrotation
                    JOINT rElbow
                    {
                        OFFSET  -0.245000   0.000000   0.000000
                        CHANNELS 3 Xrotation Yrotation Zrotation
                        JOINT rWrist
                        {
                            OFFSET  -0.240000   0.000000   0.000000
                            CHANNELS 3 Xrotation Yrotation Zrotation
                            End Site
                            {
                                OFFSET  -0.116353  -0.002500   0.000000
                            }
                        }
                    }
                }
            }
            JOINT lTorso_Clavicle
            {
                OFFSET   0.001000   0.157500   0.000000
                CHANNELS 3 Xrotation Yrotation Zrotation
                JOINT lShoulder
                {
                    OFFSET   0.117647   0.000000   0.000000
                    CHANNELS 3 Xrotation Yrotation Zrotation
                    JOINT lElbow
                    {
                        OFFSET   0.245000   0.000000   0.000000
                        CHANNELS 3 Xrotation Yrotation Zrotation
                        JOINT lWrist
                        {
                            OFFSET   0.240000   0.000000   0.000000
                            CHANNELS 3 Xrotation Yrotation Zrotation
                            End Site
                            {
                                OFFSET   0.116353  -0.002500   0.000000
                            }
                        }
                    }
                }
            }
        }
    }
    JOINT rHip
    {
        OFFSET  -0.100000  -0.051395   0.000000
        CHANNELS 3 Xrotation Yrotation Zrotation
        JOINT rKnee
        {
            OFFSET   0.000000  -0.410000   0.000000
            CHANNELS 3 Xrotation Yrotation Zrotation
            JOINT rAnkle
            {
                OFFSET   0.000000  -0.390000   0.000000
                CHANNELS 3 Xrotation Yrotation Zrotation
                JOINT rToeJoint
                {
                    OFFSET   0.000000  -0.050000   0.130000
                    CHANNELS 3 Xrotation Yrotation Zrotation
                    End Site
                    {
                        OFFSET  -0.010000   0.002000   0.060000
                    }
                }
            }
        }
    }
    JOINT lHip
    {
        OFFSET   0.100000  -0.051395   0.000000
        CHANNELS 3 Xrotation Yrotation Zrotation
        JOINT lKnee
        {
            OFFSET   0.000000  -0.410000   0.000000
            CHANNELS 3 Xrotation Yrotation Zrotation
            JOINT lAnkle
            {
                OFFSET   0.000000  -0.390000   0.000000
                CHANNELS 3 Xrotation Yrotation Zrotation
                JOINT lToeJoint
                {
                    OFFSET   0.000000  -0.050000   0.130000
                    CHANNELS 3 Xrotation Yrotation Zrotation
                    End Site
                    {
                        OFFSET   0.010000   0.002000   0.060000
                    }
                }
            }
        }
    }
}
MOTION
Frames: 14
Frame Time:   0.008333
 -2.356716   0.913859   5.169104  -3.521943 -11.166757   0.637195   8.799132   7.526430  -0.531063   6.621203   2.180589  -0.211427  -0.104234  -0.614338   1.471606   1.536140   0.466336   3.402599  -1.538107  12.250260  50.896337   0.012286  46.413132  -0.021206   0.668135   3.596715  -2.982776   8.897760   7.648329  -3.456627  25.724952  -9.014625 -55.766389  -0.015125 -16.433212  -0.000532   4.591448  -3.194510  -3.816115  15.012765   1.429557  -1.076854  11.203539   0.000222   0.000508  -7.178704   3.035013  -0.170059 -23.845738   0.001495   0.004219 -26.735828   4.480635   7.795726  23.351924   0.007526   0.050649  -9.976974  13.053703   3.188678  -4.955266   0.001066  -0.000027
 -2.356280   0.911232   5.181959  -3.531234 -11.588017   0.475080   8.738696   7.792862  -0.454843   6.765937   2.433819  -0.183338  -0.230271  -0.674132   1.548800   1.378535   0.740596   3.402343  -1.920088  12.638185  50.851329   0.011812  47.253797  -0.020515   0.652626   3.568920  -2.912371   9.197766   8.009288  -3.582514  26.509577  -8.578008 -55.884303  -0.015064 -15.783814   0.000050   4.583805  -3.155300  -4.031005  15.762809   1.358417  -1.261084  11.332514   0.000298  -0.000197  -7.473511   3.352659   0.160802 -24.758396   0.001848   0.005468 -26.946134   4.437966   8.046589  21.273774   0.004902   0.046703 -10.358709  12.992188   3.282371  -5.022402   0.000520   0.000088
 -2.355741   0.908285   5.194895  -3.516426 -12.080563   0.382880   8.668843   8.074600  -0.443605   6.890677   2.702349  -0.184581  -0.353901  -0.731888   1.621848   1.209847   1.014650   3.391604  -2.300189  13.020388  50.822227   0.011007  48.060002  -0.019456   0.640760   3.632296  -2.840336   9.512290   8.371109  -3.682317  27.274530  -8.150073 -55.997784  -0.014702 -15.162061   0.000410   4.578917  -3.053746  -4.260601  16.464935   1.255457  -1.521363  11.512754   0.000362  -0.001122  -7.501507   3.617791   0.532816 -27.308971   0.003285   0.013803 -27.141687   4.403695   8.253019  19.385426   0.003069   0.044365 -10.716771  12.934504   3.370432  -5.110530   0.000001   0.000290
 -2.355127   0.905425   5.208017  -3.494592 -12.524615   0.241733   8.579919   8.334723  -0.373363   7.000473   2.960693  -0.168095  -0.470220  -0.787401   1.689707   1.047213   1.271628   3.388142  -2.658661  13.375858  50.789086   0.010226  48.810643  -0.018182   0.631044   3.711723  -2.794478   9.816666   8.718616  -3.796785  27.997151  -7.746418 -56.113727  -0.014206 -14.574029   0.000751   4.579075  -2.902119  -4.482974  17.173923   1.156385  -1.752237  11.669853   0.000442  -0.001693  -7.785010   3.866576   0.805880 -28.034796   0.002220   0.013234 -27.315064   4.359740   8.480584  17.631541   0.001259   0.041192 -11.050055  12.879716   3.452312  -5.189213  -0.000355   0.000397
 -2.354436   0.902515   5.221252  -3.446120 -12.933172   0.110404   8.478107   8.582079  -0.308365   7.087967   3.207772  -0.146849  -0.581875  -0.839579   1.754878   0.893959   1.512579   3.383326  -2.995791  13.710134  50.763110   0.009537  49.514215  -0.016966   0.621934   3.801825  -2.754273  10.106817   9.048874  -3.897778  28.676913  -7.367400 -56.227153  -0.013535 -14.024038   0.001043   4.580346  -2.746517  -4.703771  17.855712   1.066872  -1.999078  11.842743   0.000560  -0.002166  -7.953823   4.107347   1.080522 -29.006161   0.001267   0.013215 -27.483480   4.319858   8.680067  16.001478  -0.000400   0.037819 -11.360972  12.828467   3.528377  -5.263389  -0.000608   0.000456
 -2.353690   0.899494   5.234566  -3.370100 -13.310632  -0.005632   8.369223   8.817453  -0.253243   7.157357   3.442542  -0.127879  -0.688815  -0.888338   1.815557   0.748756   1.739812   3.376823  -3.313318  14.024752  50.742093   0.008926  50.173438  -0.015852   0.613622   3.900473  -2.715671  10.380319   9.359147  -3.984708  29.314163  -7.012375 -56.334061  -0.012745 -13.510425   0.001245   4.581785  -2.597016  -4.914791  18.509701   0.983786  -2.244096  12.027628   0.000673  -0.002534  -8.057450   4.339923   1.353356 -30.130746   0.000585   0.013390 -27.647463   4.283076   8.852351  14.485299  -0.001799   0.034449 -11.651143  12.780322   3.598983  -5.333850  -0.000782   0.000484
 -2.352885   0.896325   5.247939  -3.265887 -13.680718  -0.110766   8.256240   9.047815  -0.203953   7.211716   3.669766  -0.113985  -0.790566  -0.933543   1.871221   0.609691   1.955722   3.367598  -3.613430  14.321337  50.723773   0.008346  50.790950  -0.014780   0.606263   4.005833  -2.678232  10.637268   9.650951  -4.062984  29.910457  -6.680719 -56.436765  -0.011886 -13.031145   0.001331   4.583118  -2.456238  -5.116280  19.129863   0.882899  -2.496735  12.217325   0.000768  -0.002862  -8.118036   4.533427   1.615964 -31.348384  -0.000390   0.014183 -27.802959   4.249333   9.011272  13.074411  -0.002907   0.031390 -11.922085  12.735354   3.664730  -5.400984  -0.000896   0.000500
 -2.351813   0.893580   5.261796  -3.200118 -13.880208  -0.146981   8.094962   9.217752  -0.204408   7.338892   3.845562  -0.060117  -0.908637  -1.003875   1.964174   0.529367   2.146546   3.339836  -3.810343  14.544352  50.743756   0.008865  51.455319  -0.014689   0.605551   4.049297  -2.706656  10.848799   9.935158  -4.113182  30.374329  -6.251843 -56.523149  -0.010654 -12.622625   0.002217   4.559361  -2.329845  -5.351088  19.753565   0.803929  -2.831763  12.517610   0.001250  -0.003109  -7.799552   4.716265   1.855124 -33.271035  -0.001118   0.013732 -28.081596   4.213780   8.950004  12.691626  -0.003090   0.025754 -12.072897  12.725054   3.805500  -5.342428  -0.000588   0.000353
 -2.350587   0.891037   5.275959  -3.124168 -14.073790  -0.136960   7.914802   9.390442  -0.233918   7.451757   4.009801  -0.010070  -1.021159  -1.068596   2.052565   0.479826   2.312352   3.322042  -3.974736  14.748933  50.780960   0.009290  52.076360  -0.014351   0.605022   4.089766  -2.683637  11.049195  10.206938  -4.135021  30.812119  -5.845067 -56.593569  -0.009420 -12.242612   0.002901   4.528090  -2.232235  -5.553413  20.325333   0.719311  -3.212154  12.891939   0.001815  -0.003467  -7.256783   4.876413   2.132656 -35.596043  -0.001238   0.014927 -28.272152   4.212323   8.788269  12.502011  -0.002923   0.020933 -12.203218  12.718314   3.935529  -5.275823  -0.000326   0.000220
 -2.349250   0.888497   5.290272  -3.009999 -14.309545  -0.104066   7.716891   9.570373  -0.271308   7.536699   4.174878   0.031775  -1.131443  -1.127973   2.132391   0.439386   2.467250   3.304560  -4.124922  14.942699  50.824240   0.009358  52.658493  -0.013645   0.604357   4.134635  -2.626816  11.244219  10.469028  -4.138457  31.229357  -5.459212 -56.656822  -0.008219 -11.886665   0.003325   4.496679  -2.144454  -5.739745  20.825541   0.599302  -3.616934  13.290263   0.002247  -0.004049  -6.590097   4.984695   2.423095 -38.100602  -0.002650   0.019103 -28.390081   4.228247   8.592245  12.376703  -0.002658   0.017017 -12.322666  12.712411   4.056423  -5.215203  -0.000126   0.000092
 -2.347827   0.885829   5.304649  -2.851710 -14.589139  -0.061757   7.508544   9.750198  -0.306791   7.595346   4.338923   0.068452  -1.239149  -1.183109   2.205312   0.398741   2.615293   3.282281  -4.268597  15.127536  50.866687   0.009069  53.205518  -0.012632   0.604139   4.192199  -2.559792  11.432522  10.719908  -4.130359  31.625518  -5.094554 -56.715646  -0.007067 -11.553101   0.003503   4.466343  -2.059890  -5.916394  21.263188   0.459333  -4.035077  13.684901   0.002526  -0.004703  -5.872414   5.060935   2.706869 -40.612033  -0.005502   0.024301 -28.457391   4.252381   8.387697  12.286123  -0.002366   0.013846 -12.433232  12.706803   4.169031  -5.160481   0.000024  -0.000027
 -2.346342   0.883012   5.319072  -2.652698 -14.890334  -0.028992   7.293104   9.919108  -0.325863   7.633011   4.494789   0.108148  -1.342839  -1.234783   2.273418   0.357552   2.754604   3.256826  -4.405707  15.301450  50.904767   0.008526  53.718031  -0.011418   0.604432   4.258724  -2.497216  11.610626  10.956825  -4.118127  31.998194  -4.752230 -56.770899  -0.005988 -11.240981   0.003487   4.437562  -1.976437  -6.082181  21.656286   0.312945  -4.445879  14.065257   0.002698  -0.005276  -5.180409   5.121205   2.969416 -42.750278  -0.008695   0.027530 -28.485507   4.279991   8.188372  12.217784  -0.002081   0.011264 -12.535782  12.701270   4.273948  -5.110006   0.000136  -0.000125
 -2.344813   0.880025   5.333528  -2.413367 -15.203360  -0.009411   7.074125  10.074051  -0.329698   7.652920   4.639235   0.152964  -1.442126  -1.283280   2.338011   0.316926   2.884435   3.229326  -4.535677  15.464153  50.938830   0.007844  54.197696  -0.010125   0.604989   4.330404  -2.442676  11.776503  11.178355  -4.103044  32.346413  -4.432374 -56.822630  -0.004994 -10.949887   0.003323   4.409898  -1.897942  -6.237119  22.010377   0.166568  -4.844328  14.426992   0.002797  -0.005717  -4.514019   5.172560   3.213902 -44.537166  -0.011435   0.028813 -28.483557   4.310135   7.996994  12.165694  -0.001813   0.009158 -12.631024  12.695956   4.371748  -5.063249   0.000217  -0.000201
 -2.343031   0.877293   5.348169  -2.146459 -15.364263   0.202818   6.797841  10.183421  -0.544801   7.743384   4.754349   0.235585  -1.559973  -1.294559   2.414436   0.291224   2.976003   3.214265  -4.471246  15.529845  51.065282   0.008291  54.632047  -0.009692   0.602496   4.500143  -2.557112  11.937167  11.298861  -4.035067  32.429815  -4.125386 -56.882745  -0.004062 -10.721539   0.003299   4.314933  -1.659286  -6.359736  21.975815   0.049824  -5.359108  15.344078   0.004254  -0.006764  -2.626791   5.096018   3.319880 -51.310580  -0.030312   0.045895 -28.815069   4.263073   7.499875  13.521400   0.003361   0.003352 -12.423346  12.612912   4.513735  -4.843763   0.000223  -0.001002
